<svg xmlns="http://www.w3.org/2000/svg" viewBox="0 0 133.8 26.81"><defs><style>.cls-1{fill:#d6d6d6;}.cls-2{fill:#fff;}.cls-3{fill:#878787;}</style></defs><title>Asset 1</title><g id="Layer_2" data-name="Layer 2"><g id="logo-12"><path class="cls-1" d="M19,22.19,1.06,9.81C-.76,8.56-.14,6,2.13,5.34L21.2.16A2.69,2.69,0,0,1,22.46,0a2.72,2.72,0,0,1,1.19.46,2.62,2.62,0,0,1,.84.94,2.54,2.54,0,0,1,.32,1.23L23.68,20.2C23.55,22.28,20.82,23.44,19,22.19Z"/><path class="cls-2" d="M13.31,25.24,2.74,4.58a2.94,2.94,0,0,1,.23-3A3,3,0,0,1,4.2.6,2.94,2.94,0,0,1,5.75.41l19.59,3A2.86,2.86,0,0,1,26.59,4a3,3,0,0,1,.88,1,3,3,0,0,1,.31,1.32,2.88,2.88,0,0,1-.32,1.31l-9,17.65a2.87,2.87,0,0,1-2.56,1.56,3,3,0,0,1-1.51-.42,2.87,2.87,0,0,1-1.06-1.15Z"/><path class="cls-3" d="M24.76,3.35,15,1.84,3,5.1,7.8,14.46,19,22.19a2.73,2.73,0,0,0,.81.38l4.25-8.32Z"/><path class="cls-2" d="M77.35,4.47a1.83,1.83,0,0,0-2.82.27,1.88,1.88,0,0,0-.31,1A1.84,1.84,0,0,0,76.06,7.6a1.88,1.88,0,0,0,1-.31,1.85,1.85,0,0,0,.78-1.88A1.78,1.78,0,0,0,77.35,4.47Z"/><rect class="cls-2" x="74.53" y="8.5" width="3.06" height="10.19"/><path class="cls-2" d="M89.48,9.89A5,5,0,0,0,87.87,8.7a5.06,5.06,0,0,0-2-.49,3.88,3.88,0,0,0-1.65.28,3.82,3.82,0,0,0-1.38,1V8.5H79.83V22.77h3.06v-5a3.84,3.84,0,0,0,1.38,1,3.88,3.88,0,0,0,1.65.28,5.24,5.24,0,0,0,2-.49,5.11,5.11,0,0,0,1.61-1.19,5.29,5.29,0,0,0,1-1.72,5.37,5.37,0,0,0,.29-2,5.35,5.35,0,0,0-.29-2A5.19,5.19,0,0,0,89.48,9.89ZM87.6,14.56a2.34,2.34,0,0,1-1.33,1.36,2.23,2.23,0,0,1-1,.16,2.47,2.47,0,0,1-1.34-.4,2.44,2.44,0,0,1-1-2.48A2.43,2.43,0,0,1,83.57,12a2.43,2.43,0,0,1,4.17,1.63A2.29,2.29,0,0,1,87.6,14.56Z"/><path class="cls-2" d="M95.22,11.47c0-.38.33-.58.86-.58a1.49,1.49,0,0,1,.82.25,1.58,1.58,0,0,1,.55.65l2.6-1.4a4.44,4.44,0,0,0-1.69-1.64,4.39,4.39,0,0,0-2.28-.54c-2.13,0-4,1.12-4,3.34,0,3.53,5,2.94,5,4.06,0,.4-.36.63-1.1.63A1.68,1.68,0,0,1,94.26,15l-2.65,1.51a4.52,4.52,0,0,0,1.82,1.88A4.41,4.41,0,0,0,96,19c2.21,0,4.25-1,4.25-3.34C100.24,11.86,95.22,12.64,95.22,11.47Z"/><path class="cls-2" d="M108.36,14.06c0,1.45-.78,2.1-1.9,2.1a1.6,1.6,0,0,1-.72-.11,1.86,1.86,0,0,1-.6-.4,1.58,1.58,0,0,1-.37-.62,1.77,1.77,0,0,1-.09-.72V8.5h-3.05v6.25c0,2.76,1.75,4.22,3.81,4.22a3.46,3.46,0,0,0,2.91-1.24v1h3.06V8.5h-3Z"/><path class="cls-2" d="M125.07,8.21a3.35,3.35,0,0,0-2.95,1.34,3.08,3.08,0,0,0-1.16-1,3,3,0,0,0-1.52-.32,3.18,3.18,0,0,0-1.52.26,3.13,3.13,0,0,0-1.21,1V8.5h-3.06V18.69h3.06V12.94c0-1.2.57-1.92,1.59-1.92s1.47.66,1.47,1.68v6h3V12.94c0-1.2.57-1.92,1.59-1.92s1.47.66,1.47,1.68v6h3.06V12.43C128.94,9.88,127.41,8.21,125.07,8.21Z"/><path class="cls-2" d="M131.53,3.89a2.27,2.27,0,1,0,2.27,2.27A2.27,2.27,0,0,0,131.53,3.89Z"/><path class="cls-2" d="M71.2,9.74a5.42,5.42,0,0,0-2.77-1.47,5.3,5.3,0,0,0-3.12.32,5.38,5.38,0,0,0-3.32,5h0a5.41,5.41,0,0,0,.4,2.07,5.33,5.33,0,0,0,1.17,1.75,5.42,5.42,0,0,0,8.82-1.78A5.43,5.43,0,0,0,71.2,9.74Zm-1.46,3.85a2.45,2.45,0,0,1-.15.93,2.22,2.22,0,0,1-.5.78,2.3,2.3,0,0,1-.78.53,2.38,2.38,0,0,1-.92.16,2.28,2.28,0,0,1-1.29-.39A2.35,2.35,0,0,1,65.71,12a2.34,2.34,0,0,1,2.54-.55,2.38,2.38,0,0,1,1.49,2.13Z"/><rect class="cls-2" x="32.47" y="3.81" width="3.06" height="14.88"/><path class="cls-2" d="M46.47,9.75a5.42,5.42,0,0,0-5.89-1.16,5.45,5.45,0,0,0-2.92,7.07,5.29,5.29,0,0,0,2.93,2.92,5.41,5.41,0,0,0,7.06-2.94,5.38,5.38,0,0,0-1.18-5.89Zm-1.6,4.77a2.26,2.26,0,0,1-.5.79,2.37,2.37,0,0,1-.78.52,2.29,2.29,0,0,1-.93.17,2.36,2.36,0,0,1-2.16-1.43A2.34,2.34,0,0,1,41,12a2.36,2.36,0,0,1,1.18-.66,2.33,2.33,0,0,1,2.41,1A2.29,2.29,0,0,1,45,13.59h0A2.27,2.27,0,0,1,44.87,14.52Z"/><path class="cls-2" d="M57.28,9.53a3.77,3.77,0,0,0-1.33-1,3.6,3.6,0,0,0-1.65-.31A5.18,5.18,0,0,0,50.74,17a5.23,5.23,0,0,0,3.56,1.58A3.73,3.73,0,0,0,56,18.26a3.68,3.68,0,0,0,1.33-1v.94a2.07,2.07,0,0,1-.13.89,2.1,2.1,0,0,1-.5.75,2,2,0,0,1-.77.46,2.11,2.11,0,0,1-.9.08,2.33,2.33,0,0,1-2.33-1.29L50,20.58a5.14,5.14,0,0,0,2.07,1.91,5.22,5.22,0,0,0,2.77.56c2.71,0,5.38-1.45,5.38-4.87V8.49h-3Zm0,3.86a2.34,2.34,0,0,1-.17.94,2.27,2.27,0,0,1-.54.79,2.37,2.37,0,0,1-1.76.64,2.45,2.45,0,0,1-1.38-.43,2.5,2.5,0,0,1-.91-1.12,2.53,2.53,0,0,1-.12-1.44,2.45,2.45,0,0,1,2-1.92,2.46,2.46,0,0,1,2.89,2.54Z"/></g></g></svg>